<svg width="512" height="512" viewBox="0 0 512 512" fill="none" xmlns="http://www.w3.org/2000/svg">
<rect width="512" height="512" fill="#F2F5F9"/>
<path fill-rule="evenodd" clip-rule="evenodd" d="M353.32 314.468V203.655H303.553C302.981 203.655 302.517 203.191 302.517 202.619C302.517 202.046 302.981 201.582 303.553 201.582H355.393V199.508H241.345V201.582H242.382C242.955 201.582 243.419 202.046 243.419 202.619V314.468C243.543 314.861 244.478 317.281 250.471 319.862C257.505 322.89 271.337 325.998 298.369 325.998C325.402 325.998 339.234 322.89 346.268 319.862C352.261 317.281 353.195 314.861 353.32 314.468ZM239.272 176.104V197.435H357.467V176.091L356.001 174.625H240.812L239.272 176.104Z" fill="#8899B1"/>
<path d="M245.492 182.92C245.492 182.347 245.956 181.883 246.528 181.883C247.101 181.883 247.565 182.347 247.565 182.92V191.214C247.565 191.787 247.101 192.251 246.528 192.251C245.956 192.251 245.492 191.787 245.492 191.214V182.92Z" fill="#28374D"/>
<path d="M256.896 181.883C256.324 181.883 255.86 182.347 255.86 182.92V191.214C255.86 191.787 256.324 192.251 256.896 192.251C257.469 192.251 257.933 191.787 257.933 191.214V182.92C257.933 182.347 257.469 181.883 256.896 181.883Z" fill="#28374D"/>
<path d="M277.633 181.883C277.06 181.883 276.596 182.347 276.596 182.92V191.214C276.596 191.787 277.06 192.251 277.633 192.251C278.205 192.251 278.669 191.787 278.669 191.214V182.92C278.669 182.347 278.205 181.883 277.633 181.883Z" fill="#28374D"/>
<path d="M297.332 182.92C297.332 182.347 297.796 181.883 298.369 181.883C298.941 181.883 299.405 182.347 299.405 182.92V191.214C299.405 191.787 298.941 192.251 298.369 192.251C297.796 192.251 297.332 191.787 297.332 191.214V182.92Z" fill="#28374D"/>
<path d="M318.068 182.92C318.068 182.347 318.532 181.883 319.105 181.883C319.677 181.883 320.141 182.347 320.141 182.92V191.214C320.141 191.787 319.677 192.251 319.105 192.251C318.532 192.251 318.068 191.787 318.068 191.214V182.92Z" fill="#28374D"/>
<path d="M338.804 182.92C338.804 182.347 339.268 181.883 339.841 181.883C340.413 181.883 340.877 182.347 340.877 182.92V191.214C340.877 191.787 340.413 192.251 339.841 192.251C339.268 192.251 338.804 191.787 338.804 191.214V182.92Z" fill="#28374D"/>
<path d="M307.7 182.92C307.7 182.347 308.164 181.883 308.737 181.883C309.309 181.883 309.773 182.347 309.773 182.92V191.214C309.773 191.787 309.309 192.251 308.737 192.251C308.164 192.251 307.7 191.787 307.7 191.214V182.92Z" fill="#28374D"/>
<path d="M286.964 182.92C286.964 182.347 287.428 181.883 288.001 181.883C288.573 181.883 289.037 182.347 289.037 182.92V191.214C289.037 191.787 288.573 192.251 288.001 192.251C287.428 192.251 286.964 191.787 286.964 191.214V182.92Z" fill="#28374D"/>
<path d="M266.228 182.92C266.228 182.347 266.692 181.883 267.264 181.883C267.837 181.883 268.301 182.347 268.301 182.92V191.214C268.301 191.787 267.837 192.251 267.264 192.251C266.692 192.251 266.228 191.787 266.228 191.214V182.92Z" fill="#28374D"/>
<path d="M328.436 182.92C328.436 182.347 328.9 181.883 329.473 181.883C330.045 181.883 330.509 182.347 330.509 182.92V191.214C330.509 191.787 330.045 192.251 329.473 192.251C328.9 192.251 328.436 191.787 328.436 191.214V182.92Z" fill="#28374D"/>
<path d="M349.172 182.92C349.172 182.347 349.636 181.883 350.209 181.883C350.781 181.883 351.245 182.347 351.245 182.92V191.214C351.245 191.787 350.781 192.251 350.209 192.251C349.636 192.251 349.172 191.787 349.172 191.214V182.92Z" fill="#28374D"/>
<path fill-rule="evenodd" clip-rule="evenodd" d="M240.394 172.552C240.126 172.552 239.869 172.655 239.676 172.84L237.516 174.914C237.312 175.109 237.197 175.38 237.197 175.662V198.472C237.197 199.044 237.661 199.508 238.234 199.508H239.271V202.619C239.271 203.191 239.735 203.656 240.308 203.656H241.344V314.593C241.679 318.18 246.95 320.604 249.65 321.766C257.066 324.959 271.228 328.072 298.369 328.072C325.509 328.072 339.671 324.959 347.087 321.766C349.756 320.617 355.099 318.169 355.393 314.593V203.656H356.429C357.002 203.656 357.466 203.191 357.466 202.619V199.508H358.503C359.076 199.508 359.54 199.044 359.54 198.472V175.662C359.54 175.387 359.431 175.123 359.236 174.929L357.163 172.855C356.968 172.661 356.704 172.552 356.429 172.552H240.394ZM353.319 314.468V203.656H303.553C302.98 203.656 302.516 203.191 302.516 202.619C302.516 202.046 302.98 201.582 303.553 201.582H355.393V199.508H241.344V201.582H242.381C242.954 201.582 243.418 202.046 243.418 202.619V314.468C243.543 314.861 244.477 317.282 250.47 319.862C257.504 322.89 271.336 325.998 298.369 325.998C325.401 325.998 339.233 322.89 346.267 319.862C352.26 317.282 353.195 314.861 353.319 314.468ZM239.271 176.104V197.435H357.466V176.091L356 174.625H240.811L239.271 176.104Z" fill="#28374D"/>
<path fill-rule="evenodd" clip-rule="evenodd" d="M274.093 321.597V198.471H218.796C218.16 198.471 217.644 197.955 217.644 197.319C217.644 196.683 218.16 196.167 218.796 196.167H276.397V193.863H149.676V196.167H150.828C151.465 196.167 151.98 196.683 151.98 197.319V321.597C152.119 322.033 153.157 324.722 159.816 327.589C167.632 330.954 183 334.407 213.036 334.407C243.073 334.407 258.441 330.954 266.257 327.589C272.916 324.722 273.954 322.033 274.093 321.597ZM147.372 167.858V191.559H278.701V167.844L277.071 166.215H149.084L147.372 167.858Z" fill="#8899B1"/>
<path d="M154.283 175.431C154.283 174.795 154.798 174.279 155.435 174.279C156.071 174.279 156.587 174.795 156.587 175.431V184.647C156.587 185.283 156.071 185.799 155.435 185.799C154.798 185.799 154.283 185.283 154.283 184.647V175.431Z" fill="#28374D"/>
<path d="M166.955 174.279C166.318 174.279 165.803 174.795 165.803 175.431V184.647C165.803 185.283 166.318 185.799 166.955 185.799C167.591 185.799 168.107 185.283 168.107 184.647V175.431C168.107 174.795 167.591 174.279 166.955 174.279Z" fill="#28374D"/>
<path d="M189.995 174.279C189.359 174.279 188.843 174.795 188.843 175.431V184.647C188.843 185.283 189.359 185.799 189.995 185.799C190.631 185.799 191.147 185.283 191.147 184.647V175.431C191.147 174.795 190.631 174.279 189.995 174.279Z" fill="#28374D"/>
<path d="M211.883 175.431C211.883 174.795 212.399 174.279 213.035 174.279C213.671 174.279 214.187 174.795 214.187 175.431V184.647C214.187 185.283 213.671 185.799 213.035 185.799C212.399 185.799 211.883 185.283 211.883 184.647V175.431Z" fill="#28374D"/>
<path d="M234.923 175.431C234.923 174.795 235.439 174.279 236.075 174.279C236.711 174.279 237.227 174.795 237.227 175.431V184.647C237.227 185.283 236.711 185.799 236.075 185.799C235.439 185.799 234.923 185.283 234.923 184.647V175.431Z" fill="#28374D"/>
<path d="M257.963 175.431C257.963 174.795 258.479 174.279 259.115 174.279C259.751 174.279 260.267 174.795 260.267 175.431V184.647C260.267 185.283 259.751 185.799 259.115 185.799C258.479 185.799 257.963 185.283 257.963 184.647V175.431Z" fill="#28374D"/>
<path d="M223.403 175.431C223.403 174.795 223.919 174.279 224.555 174.279C225.191 174.279 225.707 174.795 225.707 175.431V184.647C225.707 185.283 225.191 185.799 224.555 185.799C223.919 185.799 223.403 185.283 223.403 184.647V175.431Z" fill="#28374D"/>
<path d="M200.363 175.431C200.363 174.795 200.879 174.279 201.515 174.279C202.151 174.279 202.667 174.795 202.667 175.431V184.647C202.667 185.283 202.151 185.799 201.515 185.799C200.879 185.799 200.363 185.283 200.363 184.647V175.431Z" fill="#28374D"/>
<path d="M177.323 175.431C177.323 174.795 177.838 174.279 178.475 174.279C179.111 174.279 179.627 174.795 179.627 175.431V184.647C179.627 185.283 179.111 185.799 178.475 185.799C177.838 185.799 177.323 185.283 177.323 184.647V175.431Z" fill="#28374D"/>
<path d="M246.443 175.431C246.443 174.795 246.959 174.279 247.595 174.279C248.231 174.279 248.747 174.795 248.747 175.431V184.647C248.747 185.283 248.231 185.799 247.595 185.799C246.959 185.799 246.443 185.283 246.443 184.647V175.431Z" fill="#28374D"/>
<path d="M269.483 175.431C269.483 174.795 269.999 174.279 270.635 174.279C271.271 174.279 271.787 174.795 271.787 175.431V184.647C271.787 185.283 271.271 185.799 270.635 185.799C269.999 185.799 269.483 185.283 269.483 184.647V175.431Z" fill="#28374D"/>
<path fill-rule="evenodd" clip-rule="evenodd" d="M148.619 163.911C148.321 163.911 148.035 164.026 147.821 164.232L145.421 166.536C145.195 166.753 145.067 167.053 145.067 167.367V192.711C145.067 193.347 145.582 193.863 146.219 193.863H147.371V197.319C147.371 197.955 147.886 198.471 148.523 198.471H149.675V321.735C150.046 325.72 155.903 328.413 158.903 329.705C167.143 333.252 182.879 336.711 213.035 336.711C243.191 336.711 258.926 333.252 267.166 329.705C270.132 328.428 276.069 325.708 276.395 321.735V198.471H277.547C278.183 198.471 278.699 197.955 278.699 197.319V193.863H279.851C280.487 193.863 281.003 193.347 281.003 192.711V167.367C281.003 167.061 280.882 166.768 280.665 166.552L278.361 164.248C278.145 164.032 277.852 163.911 277.547 163.911H148.619ZM274.091 321.596V198.471H218.795C218.159 198.471 217.643 197.955 217.643 197.319C217.643 196.683 218.159 196.167 218.795 196.167H276.395V193.863H149.675V196.167H150.827C151.463 196.167 151.979 196.683 151.979 197.319V321.596C152.117 322.033 153.155 324.722 159.814 327.589C167.63 330.954 182.998 334.407 213.035 334.407C243.071 334.407 258.439 330.954 266.255 327.589C272.914 324.722 273.953 322.033 274.091 321.596ZM147.371 167.858V191.559H278.699V167.844L277.07 166.215H149.082L147.371 167.858Z" fill="#28374D"/>
<path fill-rule="evenodd" clip-rule="evenodd" d="M331.378 341.162V189.155H197.689C196.903 189.155 196.266 188.519 196.266 187.733C196.266 186.948 196.903 186.311 197.689 186.311H334.222V183.467H177.778V186.311H179.2C179.985 186.311 180.622 186.948 180.622 187.733V341.162C180.793 341.701 182.074 345.021 190.295 348.56C199.945 352.714 218.918 356.978 256 356.978C293.082 356.978 312.055 352.714 321.704 348.56C329.925 345.021 331.207 341.701 331.378 341.162ZM174.933 151.362V180.622H337.066V151.345L335.055 149.333H177.046L174.933 151.362Z" fill="#E0E6ED"/>
<path d="M183.467 160.711C183.467 159.926 184.103 159.289 184.889 159.289C185.674 159.289 186.311 159.926 186.311 160.711V172.089C186.311 172.874 185.674 173.511 184.889 173.511C184.103 173.511 183.467 172.874 183.467 172.089V160.711Z" fill="#28374D"/>
<path d="M199.111 159.289C198.326 159.289 197.689 159.926 197.689 160.711V172.089C197.689 172.874 198.326 173.511 199.111 173.511C199.897 173.511 200.533 172.874 200.533 172.089V160.711C200.533 159.926 199.897 159.289 199.111 159.289Z" fill="#28374D"/>
<path d="M227.556 159.289C226.77 159.289 226.133 159.926 226.133 160.711V172.089C226.133 172.874 226.77 173.511 227.556 173.511C228.341 173.511 228.978 172.874 228.978 172.089V160.711C228.978 159.926 228.341 159.289 227.556 159.289Z" fill="#28374D"/>
<path d="M254.578 160.711C254.578 159.926 255.215 159.289 256 159.289C256.785 159.289 257.422 159.926 257.422 160.711V172.089C257.422 172.874 256.785 173.511 256 173.511C255.215 173.511 254.578 172.874 254.578 172.089V160.711Z" fill="#28374D"/>
<path d="M283.022 160.711C283.022 159.926 283.659 159.289 284.444 159.289C285.23 159.289 285.867 159.926 285.867 160.711V172.089C285.867 172.874 285.23 173.511 284.444 173.511C283.659 173.511 283.022 172.874 283.022 172.089V160.711Z" fill="#28374D"/>
<path d="M311.467 160.711C311.467 159.926 312.103 159.289 312.889 159.289C313.674 159.289 314.311 159.926 314.311 160.711V172.089C314.311 172.874 313.674 173.511 312.889 173.511C312.103 173.511 311.467 172.874 311.467 172.089V160.711Z" fill="#28374D"/>
<path d="M268.8 160.711C268.8 159.926 269.437 159.289 270.222 159.289C271.008 159.289 271.644 159.926 271.644 160.711V172.089C271.644 172.874 271.008 173.511 270.222 173.511C269.437 173.511 268.8 172.874 268.8 172.089V160.711Z" fill="#28374D"/>
<path d="M240.356 160.711C240.356 159.926 240.992 159.289 241.778 159.289C242.563 159.289 243.2 159.926 243.2 160.711V172.089C243.2 172.874 242.563 173.511 241.778 173.511C240.992 173.511 240.356 172.874 240.356 172.089V160.711Z" fill="#28374D"/>
<path d="M211.911 160.711C211.911 159.926 212.548 159.289 213.333 159.289C214.119 159.289 214.756 159.926 214.756 160.711V172.089C214.756 172.874 214.119 173.511 213.333 173.511C212.548 173.511 211.911 172.874 211.911 172.089V160.711Z" fill="#28374D"/>
<path d="M297.244 160.711C297.244 159.926 297.881 159.289 298.667 159.289C299.452 159.289 300.089 159.926 300.089 160.711V172.089C300.089 172.874 299.452 173.511 298.667 173.511C297.881 173.511 297.244 172.874 297.244 172.089V160.711Z" fill="#28374D"/>
<path d="M325.689 160.711C325.689 159.926 326.326 159.289 327.111 159.289C327.897 159.289 328.533 159.926 328.533 160.711V172.089C328.533 172.874 327.897 173.511 327.111 173.511C326.326 173.511 325.689 172.874 325.689 172.089V160.711Z" fill="#28374D"/>
<path fill-rule="evenodd" clip-rule="evenodd" d="M176.474 146.489C176.107 146.489 175.754 146.631 175.489 146.885L172.526 149.73C172.247 149.998 172.089 150.368 172.089 150.756V182.045C172.089 182.83 172.726 183.467 173.511 183.467H174.933V187.733C174.933 188.519 175.57 189.156 176.356 189.156H177.778V341.333C178.236 346.254 185.467 349.578 189.171 351.173C199.344 355.552 218.771 359.822 256 359.822C293.229 359.822 312.656 355.552 322.829 351.173C326.491 349.597 333.82 346.238 334.222 341.333V189.156H335.644C336.43 189.156 337.067 188.519 337.067 187.733V183.467H338.489C339.274 183.467 339.911 182.83 339.911 182.045V150.756C339.911 150.378 339.761 150.017 339.495 149.75L336.65 146.906C336.383 146.639 336.022 146.489 335.644 146.489H176.474ZM331.378 341.162V189.156H197.689C196.903 189.156 196.267 188.519 196.267 187.733C196.267 186.948 196.903 186.311 197.689 186.311H334.222V183.467H177.778V186.311H179.2C179.985 186.311 180.622 186.948 180.622 187.733V341.162C180.793 341.701 182.075 345.021 190.296 348.56C199.945 352.714 218.918 356.978 256 356.978C293.082 356.978 312.055 352.714 321.704 348.56C329.925 345.021 331.207 341.701 331.378 341.162ZM174.933 151.362V180.622H337.067V151.345L335.055 149.333H177.046L174.933 151.362Z" fill="#28374D"/>
<path fill-rule="evenodd" clip-rule="evenodd" d="M278.208 259.906C282.926 261.249 286.382 265.601 286.382 270.763C286.382 273.035 285.712 275.15 284.56 276.921C287.931 279.304 290.133 283.238 290.133 287.688C290.133 294.959 284.255 300.853 277.005 300.853C275.409 300.853 273.879 300.567 272.464 300.044C270.786 307.4 264.22 312.889 256.375 312.889C248.432 312.889 241.799 307.262 240.225 299.766C238.623 300.465 236.854 300.853 234.995 300.853C227.744 300.853 221.866 294.959 221.866 287.688C221.866 282.301 225.094 277.669 229.716 275.631C229.012 274.157 228.618 272.506 228.618 270.763C228.618 266.006 231.553 261.937 235.705 260.277C233.665 258.552 232.369 255.97 232.369 253.085C232.369 249.39 234.494 246.193 237.585 244.656C237.124 243.545 236.87 242.327 236.87 241.049C236.87 235.856 241.068 231.646 246.247 231.646C246.376 231.646 246.503 231.648 246.63 231.653C246.625 231.526 246.622 231.398 246.622 231.27C246.622 226.076 250.821 221.866 256 221.866C261.179 221.866 265.377 226.076 265.377 231.27C265.377 231.398 265.375 231.526 265.369 231.653L265.5 231.649C265.583 231.647 265.668 231.646 265.752 231.646C270.931 231.646 275.129 235.856 275.129 241.049C275.129 242.127 274.949 243.163 274.615 244.128C278.395 245.341 281.131 248.892 281.131 253.085C281.131 255.77 280.008 258.193 278.208 259.906Z" fill="#8899B1"/>
</svg>
